<svg xmlns="http://www.w3.org/2000/svg" viewBox="0 0 1872.11 255.12"><defs><style>.cls-1{fill:#172d72;}.cls-2{fill:#e30c34;}.cls-3{fill:#fff;}</style></defs><title>Asset 18</title><g id="Layer_2" data-name="Layer 2"><g id="Layer_2-2" data-name="Layer 2"><rect class="cls-1" x="721.34" y="61.97" width="6.14" height="128.2"/><polygon class="cls-2" points="0 63.78 0 191.34 110.47 255.12 220.94 191.34 220.94 63.78 110.47 0 0 63.78"/><polygon class="cls-3" points="110.4 42.58 37.03 84.94 37.03 127.29 73.73 106.11 73.73 191.39 110.41 212.54 110.41 212.54 110.41 84.93 147.08 63.76 110.4 42.58"/><polygon class="cls-3" points="147.29 106.32 147.29 191.34 184.12 170.08 184.12 85.04 147.29 106.32"/><path class="cls-1" d="M322.5,191.08H296.32V85.68H257.76V63.86H359.67V85.68H322.5Z"/><path class="cls-1" d="M395.79,85.68H371.36V63.86h24.43Zm0,105.4H371.36V96.84h24.43Z"/><path class="cls-1" d="M422.66,63.86h49.73c19.54,0,31.59,4.37,40.14,14.66,10.12,12,15.53,29.32,15.53,48.86,0,19.72-5.41,37-15.53,48.86-8.55,10.3-20.77,14.84-40.14,14.84H422.66Zm49.73,105.4c19.72,0,29.49-13.78,29.49-41.7,0-28.1-9.77-41.88-29.49-41.88H448.83v83.58Z"/><path class="cls-1" d="M608.09,191.08H550.85V63.86h56.71c33.51,0,41.54,21.82,41.54,33.51,0,10.82-4.89,18.15-17.45,26.17,14.3,8.38,21.11,18.33,21.11,30.89C652.76,169.61,643.86,191.08,608.09,191.08ZM577,114.47h28.44c12,0,18.5-5.06,18.5-14.31,0-9.42-6.46-14.48-18.5-14.48H577Zm0,54.79h31.23c12.74,0,19.37-5.76,19.37-16.4,0-10.82-6.63-16.58-19.37-16.58H577Z"/><path class="cls-1" d="M891.54,144.88c-3.92,24.57-14.64,35.52-34.76,35.52-12.19,0-22.43-4.78-29.63-13.83s-11-22-11-37.42c0-32.05,15-51.95,39.26-51.95,19.26,0,30,8.48,33.72,26.68l.09.42h17.55l-.11-.61c-5.1-28.12-21.23-41.78-49.34-41.78-20.77,0-36.48,8-46.7,23.78-7.42,11.47-11.68,27.37-11.68,43.63,0,16,4.21,31.62,11.53,42.92,10.1,15.56,25.63,23.45,46.16,23.45,31.1,0,48.81-17.05,52.64-50.67l.07-.58H891.61Z"/><path class="cls-1" d="M983.63,61.91c-36.79,0-61.51,26.88-61.51,66.89s24.79,66.89,61.68,66.89c36.32,0,61.68-27.08,61.68-65.85C1045.48,88.57,1021.2,61.91,983.63,61.91Zm44.65,67.58c0,30.45-17.88,50.91-44.48,50.91s-44.48-20.73-44.48-51.6,17.81-51.6,44.31-51.6C1010.75,77.2,1028.28,97.72,1028.28,129.49Z"/><polygon class="cls-1" points="1125.75 173.21 1088.72 64.34 1088.6 63.99 1065.29 63.99 1065.29 191.7 1081.63 191.7 1081.63 88.18 1116.58 191.34 1116.7 191.7 1134.47 191.7 1169.19 88.21 1169.19 191.7 1185.53 191.7 1185.53 63.99 1162.22 63.99 1125.75 173.21"/><polygon class="cls-1" points="1272.75 173.21 1235.72 64.34 1235.6 63.99 1212.29 63.99 1212.29 191.7 1228.62 191.7 1228.62 88.18 1263.57 191.34 1263.69 191.7 1281.47 191.7 1316.19 88.21 1316.19 191.7 1332.53 191.7 1332.53 63.99 1309.21 63.99 1272.75 173.21"/><path class="cls-1" d="M1440.43,153.47c0,16.87-12,26.93-32.14,26.93s-31.8-9.81-31.8-26.93V64h-17.2v89.48c0,26,18.77,42.22,49,42.22,30,0,49.34-16.57,49.34-42.22V64h-17.2Z"/><polygon class="cls-1" points="1568.14 166.28 1502.9 64.23 1502.75 63.99 1484.39 63.99 1484.39 191.7 1500.72 191.7 1500.72 90.28 1565.27 191.46 1565.42 191.7 1584.47 191.7 1584.47 63.99 1568.14 63.99 1568.14 166.28"/><rect class="cls-1" x="1614.71" y="63.99" width="17.38" height="127.71"/><polygon class="cls-1" points="1650.85 79.28 1692.55 79.28 1692.55 191.7 1709.75 191.7 1709.75 79.28 1751.28 79.28 1751.28 63.99 1650.85 63.99 1650.85 79.28"/><polygon class="cls-1" points="1851.58 63.99 1815.74 125.17 1779.01 64.24 1778.86 63.99 1757.63 63.99 1806.88 141.63 1806.88 191.7 1824.08 191.7 1824.08 141.63 1872.11 63.99 1851.58 63.99"/></g></g></svg>